# xmcd CD database file
#
# Track frame offsets:
#	150
#	18155
#	37145
#	54690
#	72300
#	86710
#	104625
#	119830
#	136635
#	153317
#	167337
#	185015
#
# Disc length: 2745 seconds
#
# Revision: 0
# Processed by: cddbd v1.5PL3 Copyright (c) Steve Scherf et al.
# Submitted via: CDex 1.50
#
DISCID=a60ab70c
DTITLE=The Ocean Blue - Introducing The Ocean Blue
DYEAR=1992
DGENRE=Rock
TTITLE0=Between Something And Nothing
TTITLE1=Mercury
TTITLE2=Drifting, Falling
TTITLE3=Ballerina Out Of Control
TTITLE4=Ask Me Jon
TTITLE5=Cerulean
TTITLE6=Love Song
TTITLE7=The Office Of A Busy Man
TTITLE8=The Planetarium Scene
TTITLE9=Marigold
TTITLE10=I've Sung One Too Many Songs For A Crowd That Didn't Want To Hear
TTITLE11=Vanity Fair
EXTD=YEAR: 1992
EXTT0=
EXTT1=
EXTT2=
EXTT3=
EXTT4=
EXTT5=
EXTT6=
EXTT7=
EXTT8=
EXTT9=
EXTT10=
EXTT11=
PLAYORDER=
